{
	"asset":{
		"generator":"Khronos glTF Blender I/O v4.5.48",
		"version":"2.0"
	},
	"scene":0,
	"scenes":[
		{
			"name":"Scene",
			"nodes":[
				12,
				15,
				18
			]
		}
	],
	"nodes":[
		{
			"mesh":0,
			"name":"Body Layer",
			"translation":[
				0,
				-1.5000001192092896,
				0
			]
		},
		{
			"mesh":1,
			"name":"Body.001",
			"translation":[
				0,
				-1.5000001192092896,
				0
			]
		},
		{
			"children":[
				0,
				1
			],
			"name":"Body",
			"rotation":[
				-0.006306437775492668,
				0.19091582298278809,
				-0.01765265315771103,
				0.9814274311065674
			],
			"translation":[
				-0.03125,
				0.6875,
				-0.04374999925494194
			]
		},
		{
			"mesh":2,
			"name":"Hat Layer",
			"translation":[
				0,
				-1.500000238418579,
				0
			]
		},
		{
			"mesh":3,
			"name":"Head.001",
			"translation":[
				0,
				-1.500000238418579,
				0
			]
		},
		{
			"children":[
				3,
				4
			],
			"name":"Head",
			"rotation":[
				0.11672262847423553,
				-0.04282069578766823,
				0.025219732895493507,
				0.9919204711914062
			],
			"translation":[
				-0.018750004470348358,
				0.6812499761581421,
				-0.03125
			]
		},
		{
			"mesh":4,
			"name":"Left Arm Layer.001",
			"translation":[
				0.3125,
				-1.3750001192092896,
				0
			]
		},
		{
			"mesh":5,
			"name":"Left Arm.003",
			"translation":[
				0.3125,
				-1.3750001192092896,
				0
			]
		},
		{
			"children":[
				6,
				7
			],
			"name":"Left Arm",
			"rotation":[
				-0.06546897441148758,
				0.0003089998208452016,
				-0.06558898091316223,
				0.9956966638565063
			],
			"translation":[
				-0.3186386227607727,
				0.5372451543807983,
				0.15000000596046448
			]
		},
		{
			"mesh":6,
			"name":"Right Arm Layer.001",
			"translation":[
				-0.3125000298023224,
				-1.3749998807907104,
				0
			]
		},
		{
			"mesh":7,
			"name":"Right Arm.003",
			"translation":[
				-0.3125000298023224,
				-1.3749998807907104,
				0
			]
		},
		{
			"children":[
				9,
				10
			],
			"name":"Right Arm",
			"rotation":[
				-0.034589994698762894,
				0.1175059825181961,
				0.17438597977161407,
				0.9770289063453674
			],
			"translation":[
				0.3047066330909729,
				0.5530306100845337,
				-0.18096788227558136
			]
		},
		{
			"children":[
				2,
				5,
				8,
				11
			],
			"name":"Waist",
			"translation":[
				-0.07114856690168381,
				0.75,
				0
			]
		},
		{
			"mesh":8,
			"name":"Right Leg Layer",
			"translation":[
				-0.11874999850988388,
				-0.7500001192092896,
				0
			]
		},
		{
			"mesh":9,
			"name":"Right Leg.001",
			"translation":[
				-0.11874999850988388,
				-0.7500001192092896,
				0
			]
		},
		{
			"children":[
				13,
				14
			],
			"name":"Right Leg",
			"rotation":[
				-0.005549333523958921,
				-0.0685558021068573,
				0.0625748261809349,
				0.9956674575805664
			],
			"translation":[
				0.03510143980383873,
				0.78125,
				-0.20624999701976776
			]
		},
		{
			"mesh":10,
			"name":"Left Leg Layer",
			"translation":[
				0.11875002831220627,
				-0.75,
				0
			]
		},
		{
			"mesh":11,
			"name":"Left Leg.001",
			"translation":[
				0.11875002831220627,
				-0.75,
				0
			]
		},
		{
			"children":[
				16,
				17
			],
			"name":"Left Leg",
			"rotation":[
				-0.08262474834918976,
				0.23407070338726044,
				-0.058284346014261246,
				0.9669473767280579
			],
			"translation":[
				-0.20864856243133545,
				0.875,
				0.0625
			]
		}
	],
	"materials":[
		{
			"alphaCutoff":0.05000000074505806,
			"alphaMode":"MASK",
			"doubleSided":true,
			"name":"Material_0",
			"pbrMetallicRoughness":{
				"baseColorTexture":{
					"index":0
				},
				"metallicFactor":0
			}
		}
	],
	"meshes":[
		{
			"name":"Mesh_3",
			"primitives":[
				{
					"attributes":{
						"POSITION":0,
						"NORMAL":1,
						"TEXCOORD_0":2
					},
					"indices":3,
					"material":0
				}
			]
		},
		{
			"name":"Mesh_2",
			"primitives":[
				{
					"attributes":{
						"POSITION":4,
						"NORMAL":5,
						"TEXCOORD_0":6
					},
					"indices":3,
					"material":0
				}
			]
		},
		{
			"name":"Mesh_1",
			"primitives":[
				{
					"attributes":{
						"POSITION":7,
						"NORMAL":8,
						"TEXCOORD_0":9
					},
					"indices":3,
					"material":0
				}
			]
		},
		{
			"name":"Mesh_0",
			"primitives":[
				{
					"attributes":{
						"POSITION":10,
						"NORMAL":11,
						"TEXCOORD_0":12
					},
					"indices":3,
					"material":0
				}
			]
		},
		{
			"name":"Mesh_7.001",
			"primitives":[
				{
					"attributes":{
						"POSITION":13,
						"NORMAL":14,
						"TEXCOORD_0":15
					},
					"indices":3,
					"material":0
				}
			]
		},
		{
			"name":"Mesh_6.001",
			"primitives":[
				{
					"attributes":{
						"POSITION":16,
						"NORMAL":17,
						"TEXCOORD_0":18
					},
					"indices":3,
					"material":0
				}
			]
		},
		{
			"name":"Mesh_5.001",
			"primitives":[
				{
					"attributes":{
						"POSITION":19,
						"NORMAL":20,
						"TEXCOORD_0":21
					},
					"indices":3,
					"material":0
				}
			]
		},
		{
			"name":"Mesh_4.001",
			"primitives":[
				{
					"attributes":{
						"POSITION":22,
						"NORMAL":23,
						"TEXCOORD_0":24
					},
					"indices":3,
					"material":0
				}
			]
		},
		{
			"name":"Mesh_9",
			"primitives":[
				{
					"attributes":{
						"POSITION":25,
						"NORMAL":26,
						"TEXCOORD_0":27
					},
					"indices":3,
					"material":0
				}
			]
		},
		{
			"name":"Mesh_8",
			"primitives":[
				{
					"attributes":{
						"POSITION":28,
						"NORMAL":29,
						"TEXCOORD_0":30
					},
					"indices":3,
					"material":0
				}
			]
		},
		{
			"name":"Mesh_11",
			"primitives":[
				{
					"attributes":{
						"POSITION":31,
						"NORMAL":32,
						"TEXCOORD_0":33
					},
					"indices":3,
					"material":0
				}
			]
		},
		{
			"name":"Mesh_10",
			"primitives":[
				{
					"attributes":{
						"POSITION":34,
						"NORMAL":35,
						"TEXCOORD_0":36
					},
					"indices":3,
					"material":0
				}
			]
		}
	],
	"textures":[
		{
			"sampler":0,
			"source":0
		}
	],
	"images":[
		{
			"mimeType":"image/png",
			"name":"texture",
			"uri":"texture.png"
		}
	],
	"accessors":[
		{
			"bufferView":0,
			"componentType":5126,
			"count":24,
			"max":[
				0.265625,
				1.515625,
				0.140625
			],
			"min":[
				-0.265625,
				0.734375,
				-0.140625
			],
			"type":"VEC3"
		},
		{
			"bufferView":1,
			"componentType":5126,
			"count":24,
			"type":"VEC3"
		},
		{
			"bufferView":2,
			"componentType":5126,
			"count":24,
			"type":"VEC2"
		},
		{
			"bufferView":3,
			"componentType":5123,
			"count":36,
			"type":"SCALAR"
		},
		{
			"bufferView":4,
			"componentType":5126,
			"count":24,
			"max":[
				0.25,
				1.5,
				0.125
			],
			"min":[
				-0.25,
				0.75,
				-0.125
			],
			"type":"VEC3"
		},
		{
			"bufferView":5,
			"componentType":5126,
			"count":24,
			"type":"VEC3"
		},
		{
			"bufferView":6,
			"componentType":5126,
			"count":24,
			"type":"VEC2"
		},
		{
			"bufferView":7,
			"componentType":5126,
			"count":24,
			"max":[
				0.28125,
				2.03125,
				0.28125
			],
			"min":[
				-0.28125,
				1.46875,
				-0.28125
			],
			"type":"VEC3"
		},
		{
			"bufferView":8,
			"componentType":5126,
			"count":24,
			"type":"VEC3"
		},
		{
			"bufferView":9,
			"componentType":5126,
			"count":24,
			"type":"VEC2"
		},
		{
			"bufferView":10,
			"componentType":5126,
			"count":24,
			"max":[
				0.25,
				2,
				0.25
			],
			"min":[
				-0.25,
				1.5,
				-0.25
			],
			"type":"VEC3"
		},
		{
			"bufferView":11,
			"componentType":5126,
			"count":24,
			"type":"VEC3"
		},
		{
			"bufferView":12,
			"componentType":5126,
			"count":24,
			"type":"VEC2"
		},
		{
			"bufferView":13,
			"componentType":5126,
			"count":24,
			"max":[
				-0.234375,
				1.515625,
				0.140625
			],
			"min":[
				-0.515625,
				0.734375,
				-0.140625
			],
			"type":"VEC3"
		},
		{
			"bufferView":14,
			"componentType":5126,
			"count":24,
			"type":"VEC3"
		},
		{
			"bufferView":15,
			"componentType":5126,
			"count":24,
			"type":"VEC2"
		},
		{
			"bufferView":16,
			"componentType":5126,
			"count":24,
			"max":[
				-0.25,
				1.5,
				0.125
			],
			"min":[
				-0.5,
				0.75,
				-0.125
			],
			"type":"VEC3"
		},
		{
			"bufferView":17,
			"componentType":5126,
			"count":24,
			"type":"VEC3"
		},
		{
			"bufferView":18,
			"componentType":5126,
			"count":24,
			"type":"VEC2"
		},
		{
			"bufferView":19,
			"componentType":5126,
			"count":24,
			"max":[
				0.515625,
				1.515625,
				0.140625
			],
			"min":[
				0.234375,
				0.734375,
				-0.140625
			],
			"type":"VEC3"
		},
		{
			"bufferView":20,
			"componentType":5126,
			"count":24,
			"type":"VEC3"
		},
		{
			"bufferView":21,
			"componentType":5126,
			"count":24,
			"type":"VEC2"
		},
		{
			"bufferView":22,
			"componentType":5126,
			"count":24,
			"max":[
				0.5,
				1.5,
				0.125
			],
			"min":[
				0.25,
				0.75,
				-0.125
			],
			"type":"VEC3"
		},
		{
			"bufferView":23,
			"componentType":5126,
			"count":24,
			"type":"VEC3"
		},
		{
			"bufferView":24,
			"componentType":5126,
			"count":24,
			"type":"VEC2"
		},
		{
			"bufferView":25,
			"componentType":5126,
			"count":24,
			"max":[
				0.2593750059604645,
				0.765625,
				0.140625
			],
			"min":[
				-0.02187499962747097,
				-0.015625,
				-0.140625
			],
			"type":"VEC3"
		},
		{
			"bufferView":26,
			"componentType":5126,
			"count":24,
			"type":"VEC3"
		},
		{
			"bufferView":27,
			"componentType":5126,
			"count":24,
			"type":"VEC2"
		},
		{
			"bufferView":28,
			"componentType":5126,
			"count":24,
			"max":[
				0.24375000596046448,
				0.75,
				0.125
			],
			"min":[
				-0.0062500000931322575,
				0,
				-0.125
			],
			"type":"VEC3"
		},
		{
			"bufferView":29,
			"componentType":5126,
			"count":24,
			"type":"VEC3"
		},
		{
			"bufferView":30,
			"componentType":5126,
			"count":24,
			"type":"VEC2"
		},
		{
			"bufferView":31,
			"componentType":5126,
			"count":24,
			"max":[
				0.02187499962747097,
				0.765625,
				0.140625
			],
			"min":[
				-0.2593750059604645,
				-0.015625,
				-0.140625
			],
			"type":"VEC3"
		},
		{
			"bufferView":32,
			"componentType":5126,
			"count":24,
			"type":"VEC3"
		},
		{
			"bufferView":33,
			"componentType":5126,
			"count":24,
			"type":"VEC2"
		},
		{
			"bufferView":34,
			"componentType":5126,
			"count":24,
			"max":[
				0.0062500000931322575,
				0.75,
				0.125
			],
			"min":[
				-0.24375000596046448,
				0,
				-0.125
			],
			"type":"VEC3"
		},
		{
			"bufferView":35,
			"componentType":5126,
			"count":24,
			"type":"VEC3"
		},
		{
			"bufferView":36,
			"componentType":5126,
			"count":24,
			"type":"VEC2"
		}
	],
	"bufferViews":[
		{
			"buffer":0,
			"byteLength":288,
			"byteOffset":0,
			"target":34962
		},
		{
			"buffer":0,
			"byteLength":288,
			"byteOffset":288,
			"target":34962
		},
		{
			"buffer":0,
			"byteLength":192,
			"byteOffset":576,
			"target":34962
		},
		{
			"buffer":0,
			"byteLength":72,
			"byteOffset":768,
			"target":34963
		},
		{
			"buffer":0,
			"byteLength":288,
			"byteOffset":840,
			"target":34962
		},
		{
			"buffer":0,
			"byteLength":288,
			"byteOffset":1128,
			"target":34962
		},
		{
			"buffer":0,
			"byteLength":192,
			"byteOffset":1416,
			"target":34962
		},
		{
			"buffer":0,
			"byteLength":288,
			"byteOffset":1608,
			"target":34962
		},
		{
			"buffer":0,
			"byteLength":288,
			"byteOffset":1896,
			"target":34962
		},
		{
			"buffer":0,
			"byteLength":192,
			"byteOffset":2184,
			"target":34962
		},
		{
			"buffer":0,
			"byteLength":288,
			"byteOffset":2376,
			"target":34962
		},
		{
			"buffer":0,
			"byteLength":288,
			"byteOffset":2664,
			"target":34962
		},
		{
			"buffer":0,
			"byteLength":192,
			"byteOffset":2952,
			"target":34962
		},
		{
			"buffer":0,
			"byteLength":288,
			"byteOffset":3144,
			"target":34962
		},
		{
			"buffer":0,
			"byteLength":288,
			"byteOffset":3432,
			"target":34962
		},
		{
			"buffer":0,
			"byteLength":192,
			"byteOffset":3720,
			"target":34962
		},
		{
			"buffer":0,
			"byteLength":288,
			"byteOffset":3912,
			"target":34962
		},
		{
			"buffer":0,
			"byteLength":288,
			"byteOffset":4200,
			"target":34962
		},
		{
			"buffer":0,
			"byteLength":192,
			"byteOffset":4488,
			"target":34962
		},
		{
			"buffer":0,
			"byteLength":288,
			"byteOffset":4680,
			"target":34962
		},
		{
			"buffer":0,
			"byteLength":288,
			"byteOffset":4968,
			"target":34962
		},
		{
			"buffer":0,
			"byteLength":192,
			"byteOffset":5256,
			"target":34962
		},
		{
			"buffer":0,
			"byteLength":288,
			"byteOffset":5448,
			"target":34962
		},
		{
			"buffer":0,
			"byteLength":288,
			"byteOffset":5736,
			"target":34962
		},
		{
			"buffer":0,
			"byteLength":192,
			"byteOffset":6024,
			"target":34962
		},
		{
			"buffer":0,
			"byteLength":288,
			"byteOffset":6216,
			"target":34962
		},
		{
			"buffer":0,
			"byteLength":288,
			"byteOffset":6504,
			"target":34962
		},
		{
			"buffer":0,
			"byteLength":192,
			"byteOffset":6792,
			"target":34962
		},
		{
			"buffer":0,
			"byteLength":288,
			"byteOffset":6984,
			"target":34962
		},
		{
			"buffer":0,
			"byteLength":288,
			"byteOffset":7272,
			"target":34962
		},
		{
			"buffer":0,
			"byteLength":192,
			"byteOffset":7560,
			"target":34962
		},
		{
			"buffer":0,
			"byteLength":288,
			"byteOffset":7752,
			"target":34962
		},
		{
			"buffer":0,
			"byteLength":288,
			"byteOffset":8040,
			"target":34962
		},
		{
			"buffer":0,
			"byteLength":192,
			"byteOffset":8328,
			"target":34962
		},
		{
			"buffer":0,
			"byteLength":288,
			"byteOffset":8520,
			"target":34962
		},
		{
			"buffer":0,
			"byteLength":288,
			"byteOffset":8808,
			"target":34962
		},
		{
			"buffer":0,
			"byteLength":192,
			"byteOffset":9096,
			"target":34962
		}
	],
	"samplers":[
		{
			"magFilter":9728,
			"minFilter":9984,
			"wrapS":33071,
			"wrapT":33071
		}
	],
	"buffers":[
		{
			"byteLength":9288,
			"uri":"stand-classic.bin"
		}
	]
}
