{
	"asset":{
		"generator":"Khronos glTF Blender I/O v4.5.48",
		"version":"2.0"
	},
	"scene":0,
	"scenes":[
		{
			"name":"Scene",
			"nodes":[
				9,
				12,
				15,
				16
			]
		}
	],
	"nodes":[
		{
			"mesh":0,
			"name":"Hat Layer",
			"translation":[
				0,
				-1.5000001192092896,
				0
			]
		},
		{
			"mesh":1,
			"name":"Head.001",
			"translation":[
				0,
				-1.5000001192092896,
				0
			]
		},
		{
			"children":[
				0,
				1
			],
			"name":"Head",
			"rotation":[
				-0.09640270471572876,
				-0.20026537775993347,
				0.0008163432939909399,
				0.9749869704246521
			],
			"translation":[
				-0.01875000074505806,
				0.07449972629547119,
				-0.03125
			]
		},
		{
			"mesh":2,
			"name":"Left Arm Layer.001",
			"translation":[
				0.3125,
				-1.3750001192092896,
				0
			]
		},
		{
			"mesh":3,
			"name":"Left Arm.003",
			"translation":[
				0.3125,
				-1.3750001192092896,
				0
			]
		},
		{
			"children":[
				3,
				4
			],
			"name":"Left Arm.002",
			"rotation":[
				0.11142995953559875,
				-0.3003009259700775,
				-0.266154944896698,
				0.9091558456420898
			],
			"scale":[
				0.5,
				0.5,
				0.5
			],
			"translation":[
				-0.15052324533462524,
				0.3141295611858368,
				-0.17205727100372314
			]
		},
		{
			"mesh":4,
			"name":"Right Arm Layer.001",
			"translation":[
				-0.3125000596046448,
				-1.375,
				0
			]
		},
		{
			"mesh":5,
			"name":"Right Arm.003",
			"translation":[
				-0.3125000596046448,
				-1.375,
				0
			]
		},
		{
			"children":[
				6,
				7
			],
			"name":"Right Arm",
			"rotation":[
				0.16479302942752838,
				-0.23174504935741425,
				0.3439171016216278,
				0.8949069976806641
			],
			"scale":[
				0.5,
				0.5,
				0.5
			],
			"translation":[
				0.20430803298950195,
				0.3211168944835663,
				-0.04678792133927345
			]
		},
		{
			"children":[
				2,
				5,
				8
			],
			"name":"Waist",
			"translation":[
				-0.050334181636571884,
				0.15075138211250305,
				0
			]
		},
		{
			"mesh":6,
			"name":"Right Leg Layer",
			"translation":[
				-0.11874999105930328,
				-0.7499999403953552,
				0
			]
		},
		{
			"mesh":7,
			"name":"Right Leg.001",
			"translation":[
				-0.11874999105930328,
				-0.7499999403953552,
				0
			]
		},
		{
			"children":[
				10,
				11
			],
			"name":"Right Leg",
			"rotation":[
				-0.042743753641843796,
				-0.1532421112060547,
				0.06994929164648056,
				0.9847826957702637
			],
			"scale":[
				0.5,
				0.5,
				0.5
			],
			"translation":[
				0.04355712980031967,
				0.400622695684433,
				-0.05168807506561279
			]
		},
		{
			"mesh":8,
			"name":"Left Leg Layer",
			"translation":[
				0.11874996870756149,
				-0.75,
				0
			]
		},
		{
			"mesh":9,
			"name":"Left Leg.001",
			"translation":[
				0.11874996870756149,
				-0.75,
				0
			]
		},
		{
			"children":[
				13,
				14
			],
			"name":"Left Leg",
			"rotation":[
				-0.003396811196580529,
				0.07505855709314346,
				-0.045081429183483124,
				0.9961537718772888
			],
			"scale":[
				0.5,
				0.5,
				0.5
			],
			"translation":[
				-0.13673606514930725,
				0.38930168747901917,
				-0.15352019667625427
			]
		},
		{
			"name":"Waist.001",
			"translation":[
				1.6458745002746582,
				0.75,
				0
			]
		}
	],
	"materials":[
		{
			"alphaCutoff":0.05000000074505806,
			"alphaMode":"MASK",
			"doubleSided":true,
			"name":"Material_0",
			"pbrMetallicRoughness":{
				"baseColorTexture":{
					"index":0
				},
				"metallicFactor":0
			}
		},
		{
			"alphaCutoff":0.05000000074505806,
			"alphaMode":"MASK",
			"doubleSided":true,
			"name":"Material_0.001",
			"pbrMetallicRoughness":{
				"baseColorTexture":{
					"index":1
				},
				"metallicFactor":0
			}
		}
	],
	"meshes":[
		{
			"name":"Mesh_1",
			"primitives":[
				{
					"attributes":{
						"POSITION":0,
						"NORMAL":1,
						"TEXCOORD_0":2
					},
					"indices":3,
					"material":0
				}
			]
		},
		{
			"name":"Mesh_0",
			"primitives":[
				{
					"attributes":{
						"POSITION":4,
						"NORMAL":5,
						"TEXCOORD_0":6
					},
					"indices":3,
					"material":0
				}
			]
		},
		{
			"name":"Mesh_7.001",
			"primitives":[
				{
					"attributes":{
						"POSITION":7,
						"NORMAL":8,
						"TEXCOORD_0":9
					},
					"indices":3,
					"material":1
				}
			]
		},
		{
			"name":"Mesh_6.001",
			"primitives":[
				{
					"attributes":{
						"POSITION":10,
						"NORMAL":11,
						"TEXCOORD_0":12
					},
					"indices":3,
					"material":1
				}
			]
		},
		{
			"name":"Mesh_5.001",
			"primitives":[
				{
					"attributes":{
						"POSITION":13,
						"NORMAL":14,
						"TEXCOORD_0":15
					},
					"indices":3,
					"material":1
				}
			]
		},
		{
			"name":"Mesh_4.001",
			"primitives":[
				{
					"attributes":{
						"POSITION":16,
						"NORMAL":17,
						"TEXCOORD_0":18
					},
					"indices":3,
					"material":1
				}
			]
		},
		{
			"name":"Mesh_9",
			"primitives":[
				{
					"attributes":{
						"POSITION":19,
						"NORMAL":20,
						"TEXCOORD_0":21
					},
					"indices":3,
					"material":0
				}
			]
		},
		{
			"name":"Mesh_8",
			"primitives":[
				{
					"attributes":{
						"POSITION":22,
						"NORMAL":23,
						"TEXCOORD_0":24
					},
					"indices":3,
					"material":0
				}
			]
		},
		{
			"name":"Mesh_11",
			"primitives":[
				{
					"attributes":{
						"POSITION":25,
						"NORMAL":26,
						"TEXCOORD_0":27
					},
					"indices":3,
					"material":0
				}
			]
		},
		{
			"name":"Mesh_10",
			"primitives":[
				{
					"attributes":{
						"POSITION":28,
						"NORMAL":29,
						"TEXCOORD_0":30
					},
					"indices":3,
					"material":0
				}
			]
		}
	],
	"textures":[
		{
			"sampler":0,
			"source":0
		},
		{
			"sampler":0,
			"source":0
		}
	],
	"images":[
		{
			"mimeType":"image/png",
			"name":"texture",
			"uri":"texture.png"
		}
	],
	"accessors":[
		{
			"bufferView":0,
			"componentType":5126,
			"count":24,
			"max":[
				0.28125,
				2.03125,
				0.28125
			],
			"min":[
				-0.28125,
				1.46875,
				-0.28125
			],
			"type":"VEC3"
		},
		{
			"bufferView":1,
			"componentType":5126,
			"count":24,
			"type":"VEC3"
		},
		{
			"bufferView":2,
			"componentType":5126,
			"count":24,
			"type":"VEC2"
		},
		{
			"bufferView":3,
			"componentType":5123,
			"count":36,
			"type":"SCALAR"
		},
		{
			"bufferView":4,
			"componentType":5126,
			"count":24,
			"max":[
				0.25,
				2,
				0.25
			],
			"min":[
				-0.25,
				1.5,
				-0.25
			],
			"type":"VEC3"
		},
		{
			"bufferView":5,
			"componentType":5126,
			"count":24,
			"type":"VEC3"
		},
		{
			"bufferView":6,
			"componentType":5126,
			"count":24,
			"type":"VEC2"
		},
		{
			"bufferView":7,
			"componentType":5126,
			"count":24,
			"max":[
				-0.234375,
				1.515625,
				0.140625
			],
			"min":[
				-0.515625,
				0.734375,
				-0.140625
			],
			"type":"VEC3"
		},
		{
			"bufferView":8,
			"componentType":5126,
			"count":24,
			"type":"VEC3"
		},
		{
			"bufferView":9,
			"componentType":5126,
			"count":24,
			"type":"VEC2"
		},
		{
			"bufferView":10,
			"componentType":5126,
			"count":24,
			"max":[
				-0.25,
				1.5,
				0.125
			],
			"min":[
				-0.5,
				0.75,
				-0.125
			],
			"type":"VEC3"
		},
		{
			"bufferView":11,
			"componentType":5126,
			"count":24,
			"type":"VEC3"
		},
		{
			"bufferView":12,
			"componentType":5126,
			"count":24,
			"type":"VEC2"
		},
		{
			"bufferView":13,
			"componentType":5126,
			"count":24,
			"max":[
				0.515625,
				1.515625,
				0.140625
			],
			"min":[
				0.234375,
				0.734375,
				-0.140625
			],
			"type":"VEC3"
		},
		{
			"bufferView":14,
			"componentType":5126,
			"count":24,
			"type":"VEC3"
		},
		{
			"bufferView":15,
			"componentType":5126,
			"count":24,
			"type":"VEC2"
		},
		{
			"bufferView":16,
			"componentType":5126,
			"count":24,
			"max":[
				0.5,
				1.5,
				0.125
			],
			"min":[
				0.25,
				0.75,
				-0.125
			],
			"type":"VEC3"
		},
		{
			"bufferView":17,
			"componentType":5126,
			"count":24,
			"type":"VEC3"
		},
		{
			"bufferView":18,
			"componentType":5126,
			"count":24,
			"type":"VEC2"
		},
		{
			"bufferView":19,
			"componentType":5126,
			"count":24,
			"max":[
				0.2593750059604645,
				0.765625,
				0.140625
			],
			"min":[
				-0.02187499962747097,
				-0.015625,
				-0.140625
			],
			"type":"VEC3"
		},
		{
			"bufferView":20,
			"componentType":5126,
			"count":24,
			"type":"VEC3"
		},
		{
			"bufferView":21,
			"componentType":5126,
			"count":24,
			"type":"VEC2"
		},
		{
			"bufferView":22,
			"componentType":5126,
			"count":24,
			"max":[
				0.24375000596046448,
				0.75,
				0.125
			],
			"min":[
				-0.0062500000931322575,
				0,
				-0.125
			],
			"type":"VEC3"
		},
		{
			"bufferView":23,
			"componentType":5126,
			"count":24,
			"type":"VEC3"
		},
		{
			"bufferView":24,
			"componentType":5126,
			"count":24,
			"type":"VEC2"
		},
		{
			"bufferView":25,
			"componentType":5126,
			"count":24,
			"max":[
				0.02187499962747097,
				0.765625,
				0.140625
			],
			"min":[
				-0.2593750059604645,
				-0.015625,
				-0.140625
			],
			"type":"VEC3"
		},
		{
			"bufferView":26,
			"componentType":5126,
			"count":24,
			"type":"VEC3"
		},
		{
			"bufferView":27,
			"componentType":5126,
			"count":24,
			"type":"VEC2"
		},
		{
			"bufferView":28,
			"componentType":5126,
			"count":24,
			"max":[
				0.0062500000931322575,
				0.75,
				0.125
			],
			"min":[
				-0.24375000596046448,
				0,
				-0.125
			],
			"type":"VEC3"
		},
		{
			"bufferView":29,
			"componentType":5126,
			"count":24,
			"type":"VEC3"
		},
		{
			"bufferView":30,
			"componentType":5126,
			"count":24,
			"type":"VEC2"
		}
	],
	"bufferViews":[
		{
			"buffer":0,
			"byteLength":288,
			"byteOffset":0,
			"target":34962
		},
		{
			"buffer":0,
			"byteLength":288,
			"byteOffset":288,
			"target":34962
		},
		{
			"buffer":0,
			"byteLength":192,
			"byteOffset":576,
			"target":34962
		},
		{
			"buffer":0,
			"byteLength":72,
			"byteOffset":768,
			"target":34963
		},
		{
			"buffer":0,
			"byteLength":288,
			"byteOffset":840,
			"target":34962
		},
		{
			"buffer":0,
			"byteLength":288,
			"byteOffset":1128,
			"target":34962
		},
		{
			"buffer":0,
			"byteLength":192,
			"byteOffset":1416,
			"target":34962
		},
		{
			"buffer":0,
			"byteLength":288,
			"byteOffset":1608,
			"target":34962
		},
		{
			"buffer":0,
			"byteLength":288,
			"byteOffset":1896,
			"target":34962
		},
		{
			"buffer":0,
			"byteLength":192,
			"byteOffset":2184,
			"target":34962
		},
		{
			"buffer":0,
			"byteLength":288,
			"byteOffset":2376,
			"target":34962
		},
		{
			"buffer":0,
			"byteLength":288,
			"byteOffset":2664,
			"target":34962
		},
		{
			"buffer":0,
			"byteLength":192,
			"byteOffset":2952,
			"target":34962
		},
		{
			"buffer":0,
			"byteLength":288,
			"byteOffset":3144,
			"target":34962
		},
		{
			"buffer":0,
			"byteLength":288,
			"byteOffset":3432,
			"target":34962
		},
		{
			"buffer":0,
			"byteLength":192,
			"byteOffset":3720,
			"target":34962
		},
		{
			"buffer":0,
			"byteLength":288,
			"byteOffset":3912,
			"target":34962
		},
		{
			"buffer":0,
			"byteLength":288,
			"byteOffset":4200,
			"target":34962
		},
		{
			"buffer":0,
			"byteLength":192,
			"byteOffset":4488,
			"target":34962
		},
		{
			"buffer":0,
			"byteLength":288,
			"byteOffset":4680,
			"target":34962
		},
		{
			"buffer":0,
			"byteLength":288,
			"byteOffset":4968,
			"target":34962
		},
		{
			"buffer":0,
			"byteLength":192,
			"byteOffset":5256,
			"target":34962
		},
		{
			"buffer":0,
			"byteLength":288,
			"byteOffset":5448,
			"target":34962
		},
		{
			"buffer":0,
			"byteLength":288,
			"byteOffset":5736,
			"target":34962
		},
		{
			"buffer":0,
			"byteLength":192,
			"byteOffset":6024,
			"target":34962
		},
		{
			"buffer":0,
			"byteLength":288,
			"byteOffset":6216,
			"target":34962
		},
		{
			"buffer":0,
			"byteLength":288,
			"byteOffset":6504,
			"target":34962
		},
		{
			"buffer":0,
			"byteLength":192,
			"byteOffset":6792,
			"target":34962
		},
		{
			"buffer":0,
			"byteLength":288,
			"byteOffset":6984,
			"target":34962
		},
		{
			"buffer":0,
			"byteLength":288,
			"byteOffset":7272,
			"target":34962
		},
		{
			"buffer":0,
			"byteLength":192,
			"byteOffset":7560,
			"target":34962
		}
	],
	"samplers":[
		{
			"magFilter":9728,
			"minFilter":9984,
			"wrapS":33071,
			"wrapT":33071
		}
	],
	"buffers":[
		{
			"byteLength":7752,
			"uri":"chibi-classic.bin"
		}
	]
}
